<?xml version="1.0" encoding="utf-8"?>
<!-- Generator: Adobe Illustrator 22.0.0, SVG Export Plug-In . SVG Version: 6.00 Build 0)  -->
<svg version="1.1" id="Layer_1" xmlns="http://www.w3.org/2000/svg" xmlns:xlink="http://www.w3.org/1999/xlink" x="0px" y="0px"
	 viewBox="0 0 102 49" enable-background="new 0 0 102 49" xml:space="preserve">
<g id="XMLID_1_">
	<path d="M93.28,19.6c0-1.36,0.05-2.21,0.45-3.02c1.16,0.15,3.4,0.43,4.73,0.05c2.41-0.69,2.57-3.54,2.54-5.18
		c-1.36-0.11-3.03-0.08-4.72,0.17c-4.56,0.64-7.93,3.97-7.93,9.37l0,16.76l4.93,0l0-12.74h3.37c2.33,0,2.65-1.61,2.65-3.99l-6.02,0
		V19.6z M80.14,29.34c0-1.49,0-2.98,0.35-3.89c1.07,0.13,2.66,0.24,3.62-0.05c2.44-0.74,2.4-3.48,2.4-5.06
		c-1.39-0.09-2.69-0.03-4.19,0.2c-4.17,0.64-7.11,3.82-7.11,9.22v7.98h4.93V29.34z M67.3,33.46c-4.02,1.04-6.84-1.09-6.84-5.01V25
		c0.87-0.52,1.79-0.87,3.15-0.87C68.37,24.14,69.31,29.19,67.3,33.46 M65,20.05c-1.79,0-3.45,0.67-4.54,1.36l0-9.91
		c-1.96-0.03-4.06,0.92-4.96,1.71l0,15.17c0,6.2,3.89,9.42,8.8,9.42c4.88,0,8.9-3.99,8.9-9.37C73.2,24.04,70.13,20.05,65,20.05"/>
	<path id="XMLID_2_" d="M33.06,2.05C20.68-2.46,6.95,3.95,2.44,16.33c-4.5,12.38,1.9,26.12,14.28,30.62
		c2.69,0.98,5.44,1.44,8.15,1.44c9.76,0,18.95-6.03,22.48-15.72C51.85,20.29,45.44,6.55,33.06,2.05z M45.4,31.28
		c-5.27,2.43-12.83,3.01-20.28,1.6c1.1-2.38,2.09-4.86,2.96-7.38c3.86-0.15,7.53-0.88,10.86-2.12c1.75,3.2,3.94,5.88,6.55,7.6
		C45.47,31.07,45.44,31.18,45.4,31.28z M16.24,43.35c-1.54-4.22-2.78-8.31-3.75-12.37c1.85,1,3.86,1.88,6.04,2.63
		c1.04,0.35,2.09,0.67,3.15,0.94C20.05,37.75,18.22,40.71,16.24,43.35z M14.7,5.46c2.77,2.23,5.94,4.1,9.47,5.55
		c-1.66,3.53-3.86,7.07-6.33,10.18c-1.91-4.81-3.19-9.98-3.79-15.38C14.27,5.68,14.49,5.57,14.7,5.46z M37.87,21.23
		c-2.76,1-5.79,1.62-8.96,1.83c1.02-3.23,1.84-6.51,2.44-9.76c1.29,0.3,2.61,0.57,3.96,0.78C35.96,16.54,36.82,18.97,37.87,21.23z
		 M36.96,14.31c2.33,0.29,4.73,0.42,7.19,0.42c0.4,0.78,0.76,1.58,1.06,2.4c-1.74,1.41-3.71,2.61-5.91,3.54
		C38.37,18.66,37.59,16.5,36.96,14.31z M29.3,11.2c-1.05-0.3-2.08-0.64-3.08-1.01c1.03-2.41,1.78-4.78,2.22-7.02
		c0.54,0.09,1.08,0.21,1.62,0.34C29.96,6,29.71,8.58,29.3,11.2z M29.04,12.7c-0.63,3.47-1.52,6.99-2.65,10.44
		c-2.58-0.01-5.11-0.29-7.54-0.79c2.64-3.27,4.99-7.01,6.74-10.76C26.71,12,27.86,12.37,29.04,12.7z M20.6,31.76
		c-0.44-0.13-0.87-0.27-1.3-0.42c-2.36-0.8-4.52-1.78-6.45-2.91c1.34-1.08,2.66-2.33,3.93-3.7C17.9,27.18,19.17,29.54,20.6,31.76z
		 M11.72,27.44c-0.34-1.72-0.63-3.44-0.87-5.16c1.47,0.66,3.02,1.22,4.61,1.68C14.25,25.26,12.99,26.43,11.72,27.44z M19.48,24.9
		c1.99,0.36,4.03,0.56,6.11,0.6c-0.72,2-1.52,3.97-2.38,5.88C21.82,29.33,20.58,27.16,19.48,24.9z M40.38,22.8
		c2.02-0.87,3.87-1.95,5.55-3.19c0.74,3.17,0.78,6.53,0,9.85C43.76,27.9,41.91,25.56,40.38,22.8z M43.31,13.22
		c-2.32-0.03-4.58-0.19-6.77-0.49c-0.61-2.44-1.01-4.87-1.24-7.15C38.67,7.43,41.39,10.08,43.31,13.22z M33.7,4.78
		c0.18,2.45,0.57,5.07,1.19,7.7c-1.12-0.19-2.22-0.41-3.29-0.66c0.42-2.58,0.68-5.13,0.8-7.59C32.85,4.39,33.27,4.59,33.7,4.78z
		 M24.92,2.88c0.67,0,1.34,0.04,2.01,0.1c-0.42,2.11-1.14,4.36-2.13,6.66c-3.17-1.3-6.04-2.96-8.57-4.92
		C18.94,3.53,21.89,2.88,24.92,2.88z M11.84,7.29c0.64,4.95,1.84,9.7,3.55,14.16c-1.71-0.54-3.35-1.2-4.89-1.97
		C10.13,16,9.97,12.47,9.98,8.86C10.57,8.3,11.19,7.78,11.84,7.29z M3.32,23.19c1.59,2.18,3.62,4.16,6.08,5.88
		c-1.73,1.06-3.45,1.74-5.09,1.95C3.52,28.52,3.16,25.87,3.32,23.19z M3.86,19.57c0.1-0.43,0.23-0.86,0.36-1.29
		c1.52,1.21,3.19,2.29,5,3.22c0.22,1.7,0.48,3.4,0.8,5.09C7.33,24.56,5.25,22.19,3.86,19.57z M8.46,10.47
		c0.04,2.75,0.18,5.45,0.44,8.13c-1.38-0.81-2.66-1.72-3.82-2.71C5.95,13.88,7.09,12.07,8.46,10.47z M4.83,32.46
		c1.91-0.31,3.9-1.17,5.88-2.46c0.99,4.45,2.34,8.93,4.01,13.56C10.11,41.09,6.67,37.11,4.83,32.46z M18,44.97
		c2.03-2.69,3.92-5.71,5.61-8.98c2.58,3.27,5.56,6.19,8.84,8.75C27.95,46.42,22.88,46.61,18,44.97z M34.89,43.63
		c-3.2-2.37-6.09-5.1-8.63-8.16c6.4,0.97,12.8,0.56,17.87-1.15C42.05,38.42,38.77,41.61,34.89,43.63z"/>
</g>
</svg>
